<?xml version="1.0" standalone="no"?>
<!DOCTYPE svg PUBLIC "-//W3C//DTD SVG 20010904//EN"
 "http://www.w3.org/TR/2001/REC-SVG-20010904/DTD/svg10.dtd">
<svg version="1.0" xmlns="http://www.w3.org/2000/svg"
 width="187.000000pt" height="191.000000pt" viewBox="0 0 187.000000 191.000000"
 preserveAspectRatio="xMidYMid meet">

<g transform="translate(0.000000,191.000000) scale(0.100000,-0.100000)"
fill="#000000" stroke="none">
<path d="M770 1720 c-225 -56 -404 -199 -508 -405 -61 -122 -77 -195 -77 -350
1 -132 3 -146 33 -235 53 -153 133 -269 249 -361 145 -115 299 -169 483 -169
395 0 716 281 771 676 32 230 -61 488 -233 650 -104 98 -214 159 -352 194
-103 26 -260 26 -366 0z m354 -60 c257 -65 453 -261 522 -520 23 -87 23 -253
0 -340 -54 -207 -192 -378 -381 -470 -105 -51 -187 -70 -311 -70 -201 0 -360
66 -505 210 -73 73 -94 101 -132 180 -25 52 -52 127 -61 167 -69 315 90 646
379 789 150 74 333 94 489 54z"/>
<path d="M802 1625 c-35 -8 -102 -33 -150 -56 -121 -59 -240 -177 -299 -299
-142 -292 -70 -623 180 -825 119 -95 228 -136 384 -143 210 -9 364 50 509 193
132 131 197 289 197 475 0 431 -397 747 -821 655z m264 -470 c65 -38 89 -85
89 -172 0 -63 -3 -76 -30 -115 -53 -76 -156 -109 -238 -74 -44 18 -94 77 -108
128 -46 174 135 322 287 233z m-411 1 c42 -18 69 -66 60 -107 -4 -16 -22 -42
-42 -58 -32 -26 -34 -31 -22 -52 25 -48 70 -97 95 -103 17 -5 24 -12 22 -24
-2 -13 -15 -18 -51 -20 -43 -3 -51 0 -80 30 -18 18 -47 54 -64 81 -18 26 -37
47 -43 47 -5 0 -10 -24 -10 -54 0 -49 2 -55 23 -58 14 -2 23 -11 25 -25 3 -22
1 -23 -88 -23 -89 0 -91 1 -88 23 2 14 11 23 26 25 22 3 22 6 22 142 l0 138
-25 6 c-16 4 -25 13 -25 26 0 19 7 20 115 20 77 0 127 -5 150 -14z m627 -15
c13 -15 39 -70 57 -120 18 -51 37 -89 41 -84 4 4 21 47 38 95 30 84 31 87 12
93 -11 4 -20 15 -20 26 0 17 8 19 74 19 41 0 78 -5 81 -10 9 -15 -14 -40 -36
-40 -24 0 -25 -2 -90 -180 -49 -138 -58 -155 -78 -155 -21 0 -29 17 -77 150
-59 161 -76 195 -99 195 -8 0 -15 9 -15 20 0 17 7 20 44 20 36 0 49 -5 68 -29z
m-615 -478 c-4 -15 -5 -14 -6 5 -1 26 -18 30 -24 5 -3 -10 -5 -3 -6 15 l-1 33
21 -20 c12 -11 19 -27 16 -38z m-130 16 c0 -23 -2 -27 -9 -15 -5 9 -13 14 -19
11 -5 -4 -9 -1 -9 4 0 6 7 11 16 11 8 0 12 5 9 10 -3 6 -2 10 3 10 5 0 9 -14
9 -31z m219 9 c-1 -17 4 -23 18 -21 11 1 15 -2 9 -8 -14 -14 -43 0 -43 20 0
15 8 31 15 31 1 0 1 -10 1 -22z m38 6 c3 -8 2 -12 -4 -9 -6 3 -10 10 -10 16 0
14 7 11 14 -7z m91 -19 c0 -14 -1 -25 -2 -25 -7 0 -20 45 -16 53 8 13 16 -1
18 -28z m215 -1 c-9 -23 -13 -25 -20 -14 -6 8 -10 20 -10 25 0 6 4 4 9 -4 7
-11 10 -9 16 8 4 13 9 21 11 18 3 -2 0 -17 -6 -33z m145 2 c0 -14 -3 -22 -7
-20 -4 3 -8 17 -8 31 0 32 13 22 15 -11z m-688 -8 c-3 -7 -5 -2 -5 12 0 14 2
19 5 13 2 -7 2 -19 0 -25z m53 17 c0 -8 -5 -15 -12 -15 -6 0 -3 -7 8 -15 18
-13 18 -14 -6 -9 -20 5 -22 4 -10 -6 10 -8 11 -10 2 -8 -8 2 -13 7 -13 11 1 4
1 18 1 32 0 16 6 25 15 25 8 0 15 -7 15 -15z m97 9 c-3 -3 -12 -4 -19 -1 -8 3
-5 6 6 6 11 1 17 -2 13 -5z m143 -13 c0 -11 -4 -22 -9 -25 -5 -4 -7 3 -4 14 3
11 1 20 -5 20 -6 0 -13 -15 -15 -32 -4 -32 -4 -32 -5 5 -2 31 1 37 18 37 13 0
20 -7 20 -19z m117 3 c8 -21 -13 -42 -28 -27 -13 13 -5 43 11 43 6 0 13 -7 17
-16z m60 -9 c1 -16 1 -16 -3 -2 -3 9 -9 17 -14 17 -5 0 -11 -8 -13 -17 -3 -13
-5 -12 -6 5 -1 30 33 27 36 -3z m133 15 c0 -5 -7 -7 -15 -3 -17 6 -17 -17 0
-29 6 -5 6 -8 -2 -8 -16 0 -26 18 -19 35 6 17 36 21 36 5z m57 -15 c2 -17 1
-17 -3 -2 -4 11 -12 16 -20 13 -8 -3 -14 -1 -14 5 0 19 35 4 37 -16z m65 0 c3
-14 1 -25 -3 -25 -5 0 -9 11 -9 25 0 14 2 25 4 25 2 0 6 -11 8 -25z m25 -12
c-3 -10 -5 -4 -5 12 0 17 2 24 5 18 2 -7 2 -21 0 -30z m31 17 c-14 -22 -24
-19 -15 5 4 8 11 15 17 15 6 0 6 -7 -2 -20z m57 10 c3 -6 -1 -7 -10 -4 -17 7
-17 -16 0 -28 6 -5 6 -8 -2 -8 -16 0 -26 18 -19 35 6 17 22 20 31 5z m35 0
c-10 -6 -11 -10 -2 -10 6 0 12 -7 12 -15 0 -8 -5 -15 -11 -15 -5 0 -8 4 -4 9
3 5 1 12 -5 16 -13 8 -3 25 13 25 7 0 6 -4 -3 -10z m-725 -30 c3 -5 1 -10 -4
-10 -6 0 -11 5 -11 10 0 6 2 10 4 10 3 0 8 -4 11 -10z"/>
<path d="M906 1111 c-83 -92 -43 -281 59 -281 103 0 142 189 58 282 -23 25
-94 24 -117 -1z"/>
<path d="M527 1124 c-4 -4 -7 -34 -7 -66 l0 -58 39 0 c23 0 46 7 55 16 21 21
20 67 -2 87 -21 19 -74 32 -85 21z"/>
<path d="M940 675 c0 -8 5 -15 10 -15 6 0 10 7 10 15 0 8 -4 15 -10 15 -5 0
-10 -7 -10 -15z"/>
</g>
</svg>
